<mxfile host="app.diagrams.net" modified="2024-01-12T22:36:37.402Z" agent="Mozilla/5.0 (Windows NT 10.0; Win64; x64) AppleWebKit/537.36 (KHTML, like Gecko) Chrome/118.0.0.0 YaBrowser/23.11.0.0 Safari/537.36" etag="UfJM0DAK4nL4IOx6BVhF" version="22.1.18" type="device">
  <diagram name="Страница — 1" id="sWlTdlCcKKSUxObWTnYo">
    <mxGraphModel dx="1934" dy="1669" grid="1" gridSize="10" guides="1" tooltips="1" connect="1" arrows="1" fold="1" page="1" pageScale="1" pageWidth="827" pageHeight="1169" math="0" shadow="0">
      <root>
        <mxCell id="0" />
        <mxCell id="1" parent="0" />
        <mxCell id="kvxcxdNLKv-F1cHDaBeZ-1" value="WeatherData" style="swimlane;fontStyle=0;childLayout=stackLayout;horizontal=1;startSize=30;horizontalStack=0;resizeParent=1;resizeParentMax=0;resizeLast=0;collapsible=1;marginBottom=0;whiteSpace=wrap;html=1;" vertex="1" parent="1">
          <mxGeometry x="115" y="130" width="140" height="160" as="geometry" />
        </mxCell>
        <mxCell id="kvxcxdNLKv-F1cHDaBeZ-2" value="getTemperature()&lt;br&gt;getPressure()&lt;br&gt;getHumidity()&lt;br&gt;measurementChanged()" style="text;strokeColor=none;fillColor=none;align=left;verticalAlign=middle;spacingLeft=4;spacingRight=4;overflow=hidden;points=[[0,0.5],[1,0.5]];portConstraint=eastwest;rotatable=0;whiteSpace=wrap;html=1;" vertex="1" parent="kvxcxdNLKv-F1cHDaBeZ-1">
          <mxGeometry y="30" width="140" height="70" as="geometry" />
        </mxCell>
        <mxCell id="kvxcxdNLKv-F1cHDaBeZ-38" value="registerObserver()&lt;br&gt;removeObserver()&lt;br&gt;notifyObservers()" style="text;strokeColor=none;fillColor=none;align=left;verticalAlign=middle;spacingLeft=4;spacingRight=4;overflow=hidden;points=[[0,0.5],[1,0.5]];portConstraint=eastwest;rotatable=0;whiteSpace=wrap;html=1;" vertex="1" parent="kvxcxdNLKv-F1cHDaBeZ-1">
          <mxGeometry y="100" width="140" height="60" as="geometry" />
        </mxCell>
        <mxCell id="kvxcxdNLKv-F1cHDaBeZ-5" value="&amp;lt;&amp;lt;interface&amp;gt;&amp;gt;&lt;br&gt;ObservableSubject" style="swimlane;fontStyle=0;childLayout=stackLayout;horizontal=1;startSize=30;horizontalStack=0;resizeParent=1;resizeParentMax=0;resizeLast=0;collapsible=1;marginBottom=0;whiteSpace=wrap;html=1;" vertex="1" parent="1">
          <mxGeometry x="100" y="-70" width="170" height="100" as="geometry" />
        </mxCell>
        <mxCell id="kvxcxdNLKv-F1cHDaBeZ-6" value="registerObserver(Observer o)&lt;br&gt;removeObserver(Observer o)&lt;br&gt;notifyObserver(Observer o)" style="text;strokeColor=none;fillColor=none;align=left;verticalAlign=middle;spacingLeft=4;spacingRight=4;overflow=hidden;points=[[0,0.5],[1,0.5]];portConstraint=eastwest;rotatable=0;whiteSpace=wrap;html=1;" vertex="1" parent="kvxcxdNLKv-F1cHDaBeZ-5">
          <mxGeometry y="30" width="170" height="70" as="geometry" />
        </mxCell>
        <mxCell id="kvxcxdNLKv-F1cHDaBeZ-9" value="&amp;lt;&amp;lt;interface&amp;gt;&amp;gt;&lt;br&gt;Observer" style="swimlane;fontStyle=0;childLayout=stackLayout;horizontal=1;startSize=30;horizontalStack=0;resizeParent=1;resizeParentMax=0;resizeLast=0;collapsible=1;marginBottom=0;whiteSpace=wrap;html=1;" vertex="1" parent="1">
          <mxGeometry x="400" y="-70" width="140" height="70" as="geometry" />
        </mxCell>
        <mxCell id="kvxcxdNLKv-F1cHDaBeZ-10" value="notify()" style="text;strokeColor=none;fillColor=none;align=left;verticalAlign=middle;spacingLeft=4;spacingRight=4;overflow=hidden;points=[[0,0.5],[1,0.5]];portConstraint=eastwest;rotatable=0;whiteSpace=wrap;html=1;" vertex="1" parent="kvxcxdNLKv-F1cHDaBeZ-9">
          <mxGeometry y="30" width="140" height="40" as="geometry" />
        </mxCell>
        <mxCell id="kvxcxdNLKv-F1cHDaBeZ-13" value="DisplayNow" style="swimlane;fontStyle=0;childLayout=stackLayout;horizontal=1;startSize=30;horizontalStack=0;resizeParent=1;resizeParentMax=0;resizeLast=0;collapsible=1;marginBottom=0;whiteSpace=wrap;html=1;" vertex="1" parent="1">
          <mxGeometry x="400" y="130" width="140" height="130" as="geometry" />
        </mxCell>
        <mxCell id="kvxcxdNLKv-F1cHDaBeZ-14" value="display()&lt;br&gt;update()&lt;br&gt;setTemperature()&lt;br&gt;setHumidity()&lt;br&gt;setTemperature()&lt;br&gt;createCommand()" style="text;strokeColor=none;fillColor=none;align=left;verticalAlign=middle;spacingLeft=4;spacingRight=4;overflow=hidden;points=[[0,0.5],[1,0.5]];portConstraint=eastwest;rotatable=0;whiteSpace=wrap;html=1;" vertex="1" parent="kvxcxdNLKv-F1cHDaBeZ-13">
          <mxGeometry y="30" width="140" height="100" as="geometry" />
        </mxCell>
        <mxCell id="kvxcxdNLKv-F1cHDaBeZ-17" value="&amp;lt;&amp;lt;interface&amp;gt;&amp;gt;&lt;br&gt;DisplayElement" style="swimlane;fontStyle=0;childLayout=stackLayout;horizontal=1;startSize=30;horizontalStack=0;resizeParent=1;resizeParentMax=0;resizeLast=0;collapsible=1;marginBottom=0;whiteSpace=wrap;html=1;" vertex="1" parent="1">
          <mxGeometry x="400" y="400" width="140" height="70" as="geometry" />
        </mxCell>
        <mxCell id="kvxcxdNLKv-F1cHDaBeZ-18" value="display()" style="text;strokeColor=none;fillColor=none;align=left;verticalAlign=middle;spacingLeft=4;spacingRight=4;overflow=hidden;points=[[0,0.5],[1,0.5]];portConstraint=eastwest;rotatable=0;whiteSpace=wrap;html=1;" vertex="1" parent="kvxcxdNLKv-F1cHDaBeZ-17">
          <mxGeometry y="30" width="140" height="40" as="geometry" />
        </mxCell>
        <mxCell id="kvxcxdNLKv-F1cHDaBeZ-21" value="Heater" style="swimlane;fontStyle=0;childLayout=stackLayout;horizontal=1;startSize=30;horizontalStack=0;resizeParent=1;resizeParentMax=0;resizeLast=0;collapsible=1;marginBottom=0;whiteSpace=wrap;html=1;" vertex="1" parent="1">
          <mxGeometry x="660" y="80" width="160" height="80" as="geometry" />
        </mxCell>
        <mxCell id="kvxcxdNLKv-F1cHDaBeZ-22" value="logic()&lt;br&gt;setTemperature(desired_t)" style="text;strokeColor=none;fillColor=none;align=left;verticalAlign=middle;spacingLeft=4;spacingRight=4;overflow=hidden;points=[[0,0.5],[1,0.5]];portConstraint=eastwest;rotatable=0;whiteSpace=wrap;html=1;" vertex="1" parent="kvxcxdNLKv-F1cHDaBeZ-21">
          <mxGeometry y="30" width="160" height="50" as="geometry" />
        </mxCell>
        <mxCell id="kvxcxdNLKv-F1cHDaBeZ-25" value="Humidifier" style="swimlane;fontStyle=0;childLayout=stackLayout;horizontal=1;startSize=30;horizontalStack=0;resizeParent=1;resizeParentMax=0;resizeLast=0;collapsible=1;marginBottom=0;whiteSpace=wrap;html=1;" vertex="1" parent="1">
          <mxGeometry x="877" y="80" width="140" height="80" as="geometry" />
        </mxCell>
        <mxCell id="kvxcxdNLKv-F1cHDaBeZ-43" value="logic()&lt;br&gt;setHumidity(desired_h)" style="text;strokeColor=none;fillColor=none;align=left;verticalAlign=middle;spacingLeft=4;spacingRight=4;overflow=hidden;points=[[0,0.5],[1,0.5]];portConstraint=eastwest;rotatable=0;whiteSpace=wrap;html=1;" vertex="1" parent="kvxcxdNLKv-F1cHDaBeZ-25">
          <mxGeometry y="30" width="140" height="50" as="geometry" />
        </mxCell>
        <mxCell id="kvxcxdNLKv-F1cHDaBeZ-29" value="Controller" style="swimlane;fontStyle=0;childLayout=stackLayout;horizontal=1;startSize=30;horizontalStack=0;resizeParent=1;resizeParentMax=0;resizeLast=0;collapsible=1;marginBottom=0;whiteSpace=wrap;html=1;" vertex="1" parent="1">
          <mxGeometry x="857" y="300" width="180" height="90" as="geometry" />
        </mxCell>
        <mxCell id="kvxcxdNLKv-F1cHDaBeZ-30" value="update(device(input_data)?) // передает информацию на конкретное устройство" style="text;strokeColor=none;fillColor=none;align=left;verticalAlign=middle;spacingLeft=4;spacingRight=4;overflow=hidden;points=[[0,0.5],[1,0.5]];portConstraint=eastwest;rotatable=0;whiteSpace=wrap;html=1;" vertex="1" parent="kvxcxdNLKv-F1cHDaBeZ-29">
          <mxGeometry y="30" width="180" height="60" as="geometry" />
        </mxCell>
        <mxCell id="kvxcxdNLKv-F1cHDaBeZ-33" value="Conditioner" style="swimlane;fontStyle=0;childLayout=stackLayout;horizontal=1;startSize=30;horizontalStack=0;resizeParent=1;resizeParentMax=0;resizeLast=0;collapsible=1;marginBottom=0;whiteSpace=wrap;html=1;" vertex="1" parent="1">
          <mxGeometry x="1050" y="80" width="150" height="80" as="geometry" />
        </mxCell>
        <mxCell id="kvxcxdNLKv-F1cHDaBeZ-44" value="logic()&lt;br&gt;setTemperature(desired_t)" style="text;strokeColor=none;fillColor=none;align=left;verticalAlign=middle;spacingLeft=4;spacingRight=4;overflow=hidden;points=[[0,0.5],[1,0.5]];portConstraint=eastwest;rotatable=0;whiteSpace=wrap;html=1;" vertex="1" parent="kvxcxdNLKv-F1cHDaBeZ-33">
          <mxGeometry y="30" width="150" height="50" as="geometry" />
        </mxCell>
        <mxCell id="kvxcxdNLKv-F1cHDaBeZ-46" value="" style="endArrow=block;dashed=1;endFill=0;endSize=12;html=1;rounded=0;exitX=0.5;exitY=0;exitDx=0;exitDy=0;entryX=0.5;entryY=0.984;entryDx=0;entryDy=0;entryPerimeter=0;" edge="1" parent="1" source="kvxcxdNLKv-F1cHDaBeZ-1" target="kvxcxdNLKv-F1cHDaBeZ-6">
          <mxGeometry width="160" relative="1" as="geometry">
            <mxPoint x="300" y="60" as="sourcePoint" />
            <mxPoint x="460" y="60" as="targetPoint" />
          </mxGeometry>
        </mxCell>
        <mxCell id="kvxcxdNLKv-F1cHDaBeZ-48" value="" style="html=1;verticalAlign=bottom;endArrow=block;curved=0;rounded=0;exitX=0.997;exitY=0.289;exitDx=0;exitDy=0;exitPerimeter=0;entryX=0;entryY=0.5;entryDx=0;entryDy=0;" edge="1" parent="1" source="kvxcxdNLKv-F1cHDaBeZ-6" target="kvxcxdNLKv-F1cHDaBeZ-10">
          <mxGeometry width="80" relative="1" as="geometry">
            <mxPoint x="400" y="40" as="sourcePoint" />
            <mxPoint x="480" y="40" as="targetPoint" />
          </mxGeometry>
        </mxCell>
        <mxCell id="kvxcxdNLKv-F1cHDaBeZ-49" value="" style="endArrow=block;dashed=1;endFill=0;endSize=12;html=1;rounded=0;exitX=0.5;exitY=0;exitDx=0;exitDy=0;entryX=0.5;entryY=1;entryDx=0;entryDy=0;" edge="1" parent="1" source="kvxcxdNLKv-F1cHDaBeZ-13" target="kvxcxdNLKv-F1cHDaBeZ-9">
          <mxGeometry width="160" relative="1" as="geometry">
            <mxPoint x="471" y="111" as="sourcePoint" />
            <mxPoint x="469" y="10" as="targetPoint" />
          </mxGeometry>
        </mxCell>
        <mxCell id="kvxcxdNLKv-F1cHDaBeZ-50" value="" style="html=1;verticalAlign=bottom;endArrow=block;curved=0;rounded=0;exitX=1;exitY=0.5;exitDx=0;exitDy=0;entryX=0.001;entryY=0.351;entryDx=0;entryDy=0;entryPerimeter=0;" edge="1" parent="1" source="kvxcxdNLKv-F1cHDaBeZ-2" target="kvxcxdNLKv-F1cHDaBeZ-14">
          <mxGeometry width="80" relative="1" as="geometry">
            <mxPoint x="350" y="160" as="sourcePoint" />
            <mxPoint x="430" y="160" as="targetPoint" />
          </mxGeometry>
        </mxCell>
        <mxCell id="kvxcxdNLKv-F1cHDaBeZ-52" value="" style="html=1;verticalAlign=bottom;endArrow=block;curved=0;rounded=0;exitX=0.516;exitY=-0.001;exitDx=0;exitDy=0;exitPerimeter=0;" edge="1" parent="1" source="kvxcxdNLKv-F1cHDaBeZ-29">
          <mxGeometry width="80" relative="1" as="geometry">
            <mxPoint x="960" y="310" as="sourcePoint" />
            <mxPoint x="1129" y="160" as="targetPoint" />
            <Array as="points">
              <mxPoint x="950" y="230" />
              <mxPoint x="1129" y="230" />
            </Array>
          </mxGeometry>
        </mxCell>
        <mxCell id="kvxcxdNLKv-F1cHDaBeZ-51" value="" style="html=1;verticalAlign=bottom;endArrow=block;curved=0;rounded=0;exitX=0.516;exitY=0.002;exitDx=0;exitDy=0;entryX=0.521;entryY=1.012;entryDx=0;entryDy=0;entryPerimeter=0;exitPerimeter=0;" edge="1" parent="1" source="kvxcxdNLKv-F1cHDaBeZ-29" target="kvxcxdNLKv-F1cHDaBeZ-43">
          <mxGeometry width="80" relative="1" as="geometry">
            <mxPoint x="951.78" y="300" as="sourcePoint" />
            <mxPoint x="950" y="160" as="targetPoint" />
          </mxGeometry>
        </mxCell>
        <mxCell id="kvxcxdNLKv-F1cHDaBeZ-53" value="" style="html=1;verticalAlign=bottom;endArrow=block;curved=0;rounded=0;entryX=0.5;entryY=1.011;entryDx=0;entryDy=0;entryPerimeter=0;exitX=0.516;exitY=-0.003;exitDx=0;exitDy=0;exitPerimeter=0;" edge="1" parent="1" source="kvxcxdNLKv-F1cHDaBeZ-29" target="kvxcxdNLKv-F1cHDaBeZ-22">
          <mxGeometry width="80" relative="1" as="geometry">
            <mxPoint x="860" y="170" as="sourcePoint" />
            <mxPoint x="940" y="170" as="targetPoint" />
            <Array as="points">
              <mxPoint x="950" y="230" />
              <mxPoint x="740" y="230" />
            </Array>
          </mxGeometry>
        </mxCell>
        <mxCell id="kvxcxdNLKv-F1cHDaBeZ-54" value="" style="endArrow=block;dashed=1;endFill=0;endSize=12;html=1;rounded=0;exitX=0;exitY=0.25;exitDx=0;exitDy=0;entryX=1;entryY=0.5;entryDx=0;entryDy=0;" edge="1" parent="1" source="kvxcxdNLKv-F1cHDaBeZ-29" target="kvxcxdNLKv-F1cHDaBeZ-10">
          <mxGeometry width="160" relative="1" as="geometry">
            <mxPoint x="670" y="150" as="sourcePoint" />
            <mxPoint x="670" y="20" as="targetPoint" />
            <Array as="points">
              <mxPoint x="600" y="322" />
              <mxPoint x="600" y="-20" />
            </Array>
          </mxGeometry>
        </mxCell>
        <mxCell id="kvxcxdNLKv-F1cHDaBeZ-55" value="" style="endArrow=block;dashed=1;endFill=0;endSize=12;html=1;rounded=0;exitX=0.5;exitY=1.009;exitDx=0;exitDy=0;entryX=0.5;entryY=0;entryDx=0;entryDy=0;exitPerimeter=0;" edge="1" parent="1" source="kvxcxdNLKv-F1cHDaBeZ-14" target="kvxcxdNLKv-F1cHDaBeZ-17">
          <mxGeometry width="160" relative="1" as="geometry">
            <mxPoint x="480" y="140" as="sourcePoint" />
            <mxPoint x="480" y="10" as="targetPoint" />
          </mxGeometry>
        </mxCell>
        <mxCell id="kvxcxdNLKv-F1cHDaBeZ-56" value="" style="endArrow=block;endFill=1;html=1;edgeStyle=orthogonalEdgeStyle;align=left;verticalAlign=top;rounded=0;exitX=1;exitY=0.5;exitDx=0;exitDy=0;entryX=0;entryY=0.5;entryDx=0;entryDy=0;" edge="1" parent="1" source="kvxcxdNLKv-F1cHDaBeZ-38" target="kvxcxdNLKv-F1cHDaBeZ-30">
          <mxGeometry x="-1" relative="1" as="geometry">
            <mxPoint x="600" y="354.57" as="sourcePoint" />
            <mxPoint x="760" y="354.57" as="targetPoint" />
            <Array as="points">
              <mxPoint x="320" y="260" />
              <mxPoint x="320" y="360" />
            </Array>
          </mxGeometry>
        </mxCell>
        <mxCell id="kvxcxdNLKv-F1cHDaBeZ-59" value="&lt;&lt;interface&gt;&gt;&#xa;Command" style="swimlane;fontStyle=0;childLayout=stackLayout;horizontal=1;startSize=40;horizontalStack=0;resizeParent=1;resizeParentMax=0;resizeLast=0;collapsible=1;marginBottom=0;align=center;fontSize=14;" vertex="1" parent="1">
          <mxGeometry x="867" y="440" width="160" height="84" as="geometry" />
        </mxCell>
        <mxCell id="kvxcxdNLKv-F1cHDaBeZ-60" value="update()" style="text;strokeColor=none;fillColor=none;spacingLeft=4;spacingRight=4;overflow=hidden;rotatable=0;points=[[0,0.5],[1,0.5]];portConstraint=eastwest;fontSize=12;whiteSpace=wrap;html=1;" vertex="1" parent="kvxcxdNLKv-F1cHDaBeZ-59">
          <mxGeometry y="40" width="160" height="44" as="geometry" />
        </mxCell>
        <mxCell id="kvxcxdNLKv-F1cHDaBeZ-63" value="LightController" style="swimlane;fontStyle=0;childLayout=stackLayout;horizontal=1;startSize=40;horizontalStack=0;resizeParent=1;resizeParentMax=0;resizeLast=0;collapsible=1;marginBottom=0;align=center;fontSize=14;" vertex="1" parent="1">
          <mxGeometry x="867" y="570" width="160" height="84" as="geometry" />
        </mxCell>
        <mxCell id="kvxcxdNLKv-F1cHDaBeZ-64" value="update()" style="text;strokeColor=none;fillColor=none;spacingLeft=4;spacingRight=4;overflow=hidden;rotatable=0;points=[[0,0.5],[1,0.5]];portConstraint=eastwest;fontSize=12;whiteSpace=wrap;html=1;" vertex="1" parent="kvxcxdNLKv-F1cHDaBeZ-63">
          <mxGeometry y="40" width="160" height="44" as="geometry" />
        </mxCell>
        <mxCell id="kvxcxdNLKv-F1cHDaBeZ-65" value="Light" style="swimlane;fontStyle=0;childLayout=stackLayout;horizontal=1;startSize=40;horizontalStack=0;resizeParent=1;resizeParentMax=0;resizeLast=0;collapsible=1;marginBottom=0;align=center;fontSize=14;" vertex="1" parent="1">
          <mxGeometry x="1130" y="570" width="160" height="84" as="geometry" />
        </mxCell>
        <mxCell id="kvxcxdNLKv-F1cHDaBeZ-66" value="turnOn()&lt;br&gt;turnOff()" style="text;strokeColor=none;fillColor=none;spacingLeft=4;spacingRight=4;overflow=hidden;rotatable=0;points=[[0,0.5],[1,0.5]];portConstraint=eastwest;fontSize=12;whiteSpace=wrap;html=1;" vertex="1" parent="kvxcxdNLKv-F1cHDaBeZ-65">
          <mxGeometry y="40" width="160" height="44" as="geometry" />
        </mxCell>
        <mxCell id="kvxcxdNLKv-F1cHDaBeZ-67" value="" style="endArrow=block;dashed=1;endFill=0;endSize=12;html=1;rounded=0;exitX=0.5;exitY=1.009;exitDx=0;exitDy=0;exitPerimeter=0;" edge="1" parent="1">
          <mxGeometry width="160" relative="1" as="geometry">
            <mxPoint x="946.44" y="390" as="sourcePoint" />
            <mxPoint x="946" y="440" as="targetPoint" />
          </mxGeometry>
        </mxCell>
        <mxCell id="kvxcxdNLKv-F1cHDaBeZ-68" value="" style="endArrow=block;dashed=1;endFill=0;endSize=12;html=1;rounded=0;exitX=0.5;exitY=0;exitDx=0;exitDy=0;entryX=0.502;entryY=1.008;entryDx=0;entryDy=0;entryPerimeter=0;" edge="1" parent="1" source="kvxcxdNLKv-F1cHDaBeZ-63" target="kvxcxdNLKv-F1cHDaBeZ-60">
          <mxGeometry width="160" relative="1" as="geometry">
            <mxPoint x="956.44" y="400" as="sourcePoint" />
            <mxPoint x="956" y="450" as="targetPoint" />
          </mxGeometry>
        </mxCell>
        <mxCell id="kvxcxdNLKv-F1cHDaBeZ-69" value="" style="html=1;verticalAlign=bottom;endArrow=block;curved=0;rounded=0;exitX=1;exitY=0.5;exitDx=0;exitDy=0;entryX=0;entryY=0.5;entryDx=0;entryDy=0;" edge="1" parent="1" source="kvxcxdNLKv-F1cHDaBeZ-64" target="kvxcxdNLKv-F1cHDaBeZ-66">
          <mxGeometry width="80" relative="1" as="geometry">
            <mxPoint x="1060" y="550" as="sourcePoint" />
            <mxPoint x="1140" y="550" as="targetPoint" />
          </mxGeometry>
        </mxCell>
        <mxCell id="kvxcxdNLKv-F1cHDaBeZ-70" value="" style="html=1;verticalAlign=bottom;endArrow=block;curved=0;rounded=0;exitX=1;exitY=0.5;exitDx=0;exitDy=0;entryX=0;entryY=0.5;entryDx=0;entryDy=0;" edge="1" parent="1" source="kvxcxdNLKv-F1cHDaBeZ-14" target="kvxcxdNLKv-F1cHDaBeZ-60">
          <mxGeometry width="80" relative="1" as="geometry">
            <mxPoint x="610" y="370" as="sourcePoint" />
            <mxPoint x="690" y="370" as="targetPoint" />
            <Array as="points">
              <mxPoint x="670" y="210" />
              <mxPoint x="670" y="502" />
            </Array>
          </mxGeometry>
        </mxCell>
        <mxCell id="kvxcxdNLKv-F1cHDaBeZ-71" value="LightSensor" style="swimlane;fontStyle=0;childLayout=stackLayout;horizontal=1;startSize=26;horizontalStack=0;resizeParent=1;resizeParentMax=0;resizeLast=0;collapsible=1;marginBottom=0;align=center;fontSize=14;" vertex="1" parent="1">
          <mxGeometry x="-120" y="-290" width="160" height="90" as="geometry" />
        </mxCell>
        <mxCell id="kvxcxdNLKv-F1cHDaBeZ-72" value="measurementLight()" style="text;strokeColor=none;fillColor=none;spacingLeft=4;spacingRight=4;overflow=hidden;rotatable=0;points=[[0,0.5],[1,0.5]];portConstraint=eastwest;fontSize=12;whiteSpace=wrap;html=1;" vertex="1" parent="kvxcxdNLKv-F1cHDaBeZ-71">
          <mxGeometry y="26" width="160" height="64" as="geometry" />
        </mxCell>
        <mxCell id="kvxcxdNLKv-F1cHDaBeZ-75" value="TemperatureSensor" style="swimlane;fontStyle=0;childLayout=stackLayout;horizontal=1;startSize=26;horizontalStack=0;resizeParent=1;resizeParentMax=0;resizeLast=0;collapsible=1;marginBottom=0;align=center;fontSize=14;" vertex="1" parent="1">
          <mxGeometry x="105" y="-290" width="160" height="90" as="geometry" />
        </mxCell>
        <mxCell id="kvxcxdNLKv-F1cHDaBeZ-76" value="measurementTemperature()" style="text;strokeColor=none;fillColor=none;spacingLeft=4;spacingRight=4;overflow=hidden;rotatable=0;points=[[0,0.5],[1,0.5]];portConstraint=eastwest;fontSize=12;whiteSpace=wrap;html=1;" vertex="1" parent="kvxcxdNLKv-F1cHDaBeZ-75">
          <mxGeometry y="26" width="160" height="64" as="geometry" />
        </mxCell>
        <mxCell id="kvxcxdNLKv-F1cHDaBeZ-79" value="HumiditySensor" style="swimlane;fontStyle=0;childLayout=stackLayout;horizontal=1;startSize=26;horizontalStack=0;resizeParent=1;resizeParentMax=0;resizeLast=0;collapsible=1;marginBottom=0;align=center;fontSize=14;" vertex="1" parent="1">
          <mxGeometry x="334" y="-290" width="160" height="90" as="geometry" />
        </mxCell>
        <mxCell id="kvxcxdNLKv-F1cHDaBeZ-80" value="measurementHumidity()&amp;nbsp;" style="text;strokeColor=none;fillColor=none;spacingLeft=4;spacingRight=4;overflow=hidden;rotatable=0;points=[[0,0.5],[1,0.5]];portConstraint=eastwest;fontSize=12;whiteSpace=wrap;html=1;" vertex="1" parent="kvxcxdNLKv-F1cHDaBeZ-79">
          <mxGeometry y="26" width="160" height="64" as="geometry" />
        </mxCell>
        <mxCell id="kvxcxdNLKv-F1cHDaBeZ-83" value="" style="endArrow=block;dashed=1;endFill=0;endSize=12;html=1;rounded=0;exitX=0.504;exitY=1.006;exitDx=0;exitDy=0;entryX=0.5;entryY=0;entryDx=0;entryDy=0;exitPerimeter=0;" edge="1" parent="1" source="kvxcxdNLKv-F1cHDaBeZ-76" target="kvxcxdNLKv-F1cHDaBeZ-5">
          <mxGeometry width="160" relative="1" as="geometry">
            <mxPoint x="195" y="140" as="sourcePoint" />
            <mxPoint x="195" y="39" as="targetPoint" />
          </mxGeometry>
        </mxCell>
        <mxCell id="kvxcxdNLKv-F1cHDaBeZ-84" value="" style="endArrow=block;dashed=1;endFill=0;endSize=12;html=1;rounded=0;exitX=0.497;exitY=1.008;exitDx=0;exitDy=0;entryX=0.5;entryY=0;entryDx=0;entryDy=0;exitPerimeter=0;" edge="1" parent="1" source="kvxcxdNLKv-F1cHDaBeZ-80" target="kvxcxdNLKv-F1cHDaBeZ-5">
          <mxGeometry width="160" relative="1" as="geometry">
            <mxPoint x="196" y="-186" as="sourcePoint" />
            <mxPoint x="195" y="-60" as="targetPoint" />
            <Array as="points">
              <mxPoint x="414" y="-140" />
              <mxPoint x="185" y="-140" />
            </Array>
          </mxGeometry>
        </mxCell>
        <mxCell id="kvxcxdNLKv-F1cHDaBeZ-86" value="" style="endArrow=block;dashed=1;endFill=0;endSize=12;html=1;rounded=0;exitX=0.479;exitY=1.008;exitDx=0;exitDy=0;entryX=0.5;entryY=0;entryDx=0;entryDy=0;exitPerimeter=0;" edge="1" parent="1" source="kvxcxdNLKv-F1cHDaBeZ-72" target="kvxcxdNLKv-F1cHDaBeZ-5">
          <mxGeometry width="160" relative="1" as="geometry">
            <mxPoint x="424" y="-189" as="sourcePoint" />
            <mxPoint x="195" y="-60" as="targetPoint" />
            <Array as="points">
              <mxPoint x="-43" y="-140" />
              <mxPoint x="185" y="-140" />
            </Array>
          </mxGeometry>
        </mxCell>
        <mxCell id="kvxcxdNLKv-F1cHDaBeZ-87" value="" style="endArrow=block;dashed=1;endFill=0;endSize=12;html=1;rounded=0;entryX=0.208;entryY=0.977;entryDx=0;entryDy=0;entryPerimeter=0;exitX=1;exitY=0.143;exitDx=0;exitDy=0;exitPerimeter=0;" edge="1" parent="1" source="kvxcxdNLKv-F1cHDaBeZ-2" target="kvxcxdNLKv-F1cHDaBeZ-10">
          <mxGeometry width="160" relative="1" as="geometry">
            <mxPoint x="260" y="170" as="sourcePoint" />
            <mxPoint x="195" y="39" as="targetPoint" />
            <Array as="points">
              <mxPoint x="330" y="170" />
              <mxPoint x="330" y="50" />
              <mxPoint x="430" y="50" />
            </Array>
          </mxGeometry>
        </mxCell>
      </root>
    </mxGraphModel>
  </diagram>
</mxfile>
